<svg width="40" height="72" viewBox="0 0 40 72" fill="none" xmlns="http://www.w3.org/2000/svg">
<path d="M6.4248 25.8706V67.2066C6.4248 68.2844 6.81799 69.2165 7.60596 70.0037C8.38007 70.778 9.29613 71.1675 10.3516 71.1798C11.4064 71.1675 12.3231 70.7778 13.098 70.0037C13.8852 69.2165 14.2783 68.2844 14.2783 67.2066V25.8706C15.4594 25.457 19.887 21.5107 19.887 20.2455V3.62007C19.887 3.08254 19.6896 2.61591 19.2964 2.22193C18.9024 1.82874 18.4358 1.63135 17.8983 1.63135C17.3591 1.63135 16.8933 1.82874 16.5001 2.22193C16.1061 2.61671 15.9095 3.08254 15.9095 3.62007V16.5473C15.9095 17.0864 15.7121 17.5522 15.319 17.9454C14.925 18.3394 14.4591 18.5352 13.9208 18.5352C13.3817 18.5352 12.9158 18.3394 12.5227 17.9454C12.1295 17.5522 11.9321 17.0856 11.9321 16.5473V3.62007C11.9321 3.08254 11.7347 2.61591 11.3415 2.22193C10.9483 1.82874 10.4818 1.63135 9.94349 1.63135C9.40436 1.63135 8.93853 1.82874 8.54535 2.22193C8.15136 2.61671 7.95477 3.08254 7.95477 3.62007V16.5473C7.95477 17.0864 7.75737 17.5522 7.36419 17.9454C6.9702 18.3394 6.50437 18.5352 5.96604 18.5352C5.42691 18.5352 4.96108 18.3394 4.5679 17.9454C4.17391 17.5522 3.97732 17.0856 3.97732 16.5473V3.62007C3.97732 3.08254 3.78072 2.61591 3.38674 2.22193C2.99355 1.82874 2.52706 1.63135 1.98859 1.63135C1.44946 1.63135 0.983633 1.82874 0.59058 2.22193C0.197393 2.61671 0 3.08254 0 3.62007V20.2448C0.000399851 21.5098 5.24364 25.4562 6.4248 25.8706Z" fill="#25442B"/>
<path d="M10.4021 71.1841C10.3849 71.1841 10.3687 71.1792 10.3515 71.1792C10.3344 71.1792 10.3188 71.1841 10.301 71.1841H10.4021Z" fill="#25442B"/>
<path d="M35.798 72C35.7808 72 35.7647 71.9951 35.7475 71.9951C35.7303 71.9951 35.7139 72 35.697 72H35.798Z" fill="#25442B"/>
<path d="M27.3066 35.7984H31.8208V68.0225C31.8208 69.1 32.2138 70.0324 33.001 70.8193C33.7757 71.5936 34.6919 71.9834 35.7473 71.9957C36.8019 71.9834 37.7187 71.5934 38.4936 70.8193C39.2808 70.0324 39.6747 69.1 39.6747 68.0225V1.98872C39.6747 1.45119 39.4774 0.984566 39.0842 0.59058C38.6904 0.197393 38.2247 0 37.6863 0H36.2571C33.5222 0 31.1812 0.974037 29.234 2.92104C27.2872 4.86885 26.3132 7.20998 26.3132 9.94416V34.8042C26.3132 35.0734 26.4119 35.3067 26.6085 35.5033C26.8041 35.6997 27.0374 35.7984 27.3066 35.7984Z" fill="#25442B"/>
</svg>
